<svg xmlns="http://www.w3.org/2000/svg" viewBox="0 0 100 150" width="100" height="150">
  <ellipse cx="50" cy="145" rx="28" ry="5" fill="#000" opacity=".18"/>
  <g stroke="#4a3426" stroke-width="4" stroke-linejoin="round" stroke-linecap="round">
    <rect x="35" y="112" width="12" height="30" rx="5" fill="#5a6fa8"/>
    <rect x="53" y="112" width="12" height="30" rx="5" fill="#5a6fa8"/>
    <rect x="18" y="82" width="13" height="32" rx="6.5" fill="#e2733a" transform="rotate(12 24 84)"/>
    <rect x="69" y="82" width="13" height="32" rx="6.5" fill="#e2733a" transform="rotate(-12 76 84)"/>
    <path d="M26 122 Q24 82 50 76 Q76 82 74 122 Z" fill="#e2733a"/>
    <circle cx="50" cy="20" r="14" fill="#e2733a"/>
    <circle cx="50" cy="46" r="27" fill="#f6d2b5"/>
    <circle cx="41" cy="49" r="3.5" fill="#4a3426" stroke="none"/>
    <circle cx="59" cy="49" r="3.5" fill="#4a3426" stroke="none"/>
    <ellipse cx="34" cy="57" rx="4.5" ry="2.8" fill="#f28b82" stroke="none" opacity=".75"/>
    <ellipse cx="66" cy="57" rx="4.5" ry="2.8" fill="#f28b82" stroke="none" opacity=".75"/>
    <path d="M44 59 Q50 64 56 59" fill="none" stroke-width="3"/>
    <path d="M24 44 Q26 18 50 18 Q74 18 76 44 Q66 30 50 32 Q34 30 24 44 Z" fill="#e2733a"/><rect x="28" y="100" width="44" height="10" rx="3" fill="#8a5a33" stroke-width="3"/><path d="M70 92 L84 80" stroke-width="5"/><rect x="80" y="70" width="12" height="10" rx="2" fill="#b9c4cc" stroke-width="3" transform="rotate(-40 86 75)"/>
  </g>
</svg>
